<svg xmlns="http://www.w3.org/2000/svg" xmlns:xlink="http://www.w3.org/1999/xlink" width="2000" zoomAndPan="magnify" viewBox="0 0 1500 1499.999933" height="2000" preserveAspectRatio="xMidYMid meet" version="1.0"><defs><clipPath id="0c7177ae37"><path d="M 562 245.527344 L 938 245.527344 L 938 1254 L 562 1254 Z M 562 245.527344 " clip-rule="nonzero"/></clipPath></defs><path fill="#000000" d="M 82.503906 705.6875 L 331.585938 454.480469 C 334.46875 451.4375 337.628906 448.710938 341.066406 446.308594 C 344.503906 443.90625 348.148438 441.871094 351.996094 440.207031 C 355.847656 438.542969 359.824219 437.28125 363.929688 436.425781 C 368.035156 435.570312 372.1875 435.132812 376.378906 435.121094 C 377.933594 435.128906 379.480469 435.199219 381.03125 435.324219 C 382.578125 435.449219 384.117188 435.632812 385.652344 435.871094 C 387.183594 436.113281 388.707031 436.410156 390.21875 436.761719 C 391.730469 437.113281 393.230469 437.519531 394.710938 437.984375 C 396.191406 438.445312 397.65625 438.964844 399.097656 439.535156 C 400.542969 440.105469 401.960938 440.730469 403.359375 441.40625 C 404.757812 442.082031 406.128906 442.808594 407.472656 443.585938 C 408.816406 444.367188 410.128906 445.191406 411.410156 446.066406 C 412.691406 446.941406 413.941406 447.863281 415.15625 448.828125 C 416.371094 449.796875 417.546875 450.808594 418.6875 451.863281 C 419.828125 452.914062 420.925781 454.011719 421.984375 455.144531 C 423.042969 456.28125 424.058594 457.453125 425.03125 458.664062 C 426.003906 459.875 426.929688 461.121094 427.808594 462.398438 C 428.6875 463.679688 429.519531 464.988281 430.300781 466.328125 C 431.085938 467.667969 431.816406 469.039062 432.5 470.433594 C 433.179688 471.828125 433.808594 473.246094 434.386719 474.6875 C 434.964844 476.128906 435.488281 477.589844 435.957031 479.066406 C 436.425781 480.546875 436.835938 482.042969 437.195312 483.554688 C 437.554688 485.066406 437.855469 486.585938 438.101562 488.121094 C 438.347656 489.652344 438.535156 491.191406 438.667969 492.738281 C 438.800781 494.285156 438.875 495.835938 438.890625 497.386719 C 438.910156 498.941406 438.867188 500.492188 438.769531 502.039062 C 438.671875 503.589844 438.519531 505.132812 438.308594 506.671875 C 438.09375 508.210938 437.828125 509.738281 437.5 511.253906 C 437.175781 512.773438 436.796875 514.277344 436.359375 515.765625 C 435.925781 517.257812 435.433594 518.730469 434.890625 520.183594 C 434.34375 521.636719 433.746094 523.066406 433.09375 524.476562 C 432.445312 525.886719 431.742188 527.269531 430.988281 528.628906 C 430.238281 529.984375 429.433594 531.3125 428.582031 532.613281 C 427.730469 533.910156 426.832031 535.175781 425.886719 536.40625 C 424.945312 537.636719 423.953125 538.832031 422.921875 539.992188 C 421.886719 541.152344 420.8125 542.269531 419.695312 543.347656 L 214.429688 750.367188 L 419.695312 957.386719 C 420.8125 958.464844 421.886719 959.585938 422.921875 960.742188 C 423.953125 961.902344 424.945312 963.097656 425.886719 964.328125 C 426.832031 965.5625 427.730469 966.824219 428.582031 968.125 C 429.433594 969.421875 430.238281 970.75 430.988281 972.109375 C 431.742188 973.464844 432.445312 974.847656 433.097656 976.257812 C 433.746094 977.667969 434.34375 979.097656 434.890625 980.554688 C 435.433594 982.007812 435.925781 983.476562 436.359375 984.96875 C 436.796875 986.457031 437.175781 987.960938 437.503906 989.480469 C 437.828125 991 438.09375 992.527344 438.308594 994.0625 C 438.519531 995.601562 438.671875 997.144531 438.769531 998.695312 C 438.867188 1000.246094 438.910156 1001.796875 438.890625 1003.347656 C 438.875 1004.898438 438.800781 1006.449219 438.667969 1007.996094 C 438.535156 1009.542969 438.347656 1011.082031 438.101562 1012.617188 C 437.855469 1014.148438 437.554688 1015.671875 437.195312 1017.179688 C 436.839844 1018.691406 436.425781 1020.1875 435.957031 1021.667969 C 435.488281 1023.148438 434.964844 1024.609375 434.386719 1026.050781 C 433.808594 1027.488281 433.179688 1028.90625 432.5 1030.304688 C 431.816406 1031.699219 431.085938 1033.066406 430.300781 1034.40625 C 429.519531 1035.746094 428.6875 1037.054688 427.808594 1038.335938 C 426.929688 1039.613281 426.003906 1040.859375 425.03125 1042.070312 C 424.058594 1043.28125 423.042969 1044.453125 421.984375 1045.589844 C 420.925781 1046.722656 419.828125 1047.820312 418.6875 1048.871094 C 417.546875 1049.925781 416.371094 1050.9375 415.15625 1051.90625 C 413.941406 1052.871094 412.691406 1053.792969 411.410156 1054.667969 C 410.128906 1055.542969 408.816406 1056.367188 407.472656 1057.144531 C 406.128906 1057.925781 404.757812 1058.652344 403.359375 1059.328125 C 401.960938 1060.003906 400.542969 1060.628906 399.097656 1061.199219 C 397.65625 1061.769531 396.191406 1062.285156 394.710938 1062.75 C 393.230469 1063.210938 391.730469 1063.621094 390.21875 1063.972656 C 388.707031 1064.324219 387.183594 1064.621094 385.652344 1064.859375 C 384.117188 1065.101562 382.578125 1065.28125 381.03125 1065.40625 C 379.480469 1065.535156 377.933594 1065.601562 376.378906 1065.613281 C 372.1875 1065.597656 368.035156 1065.164062 363.929688 1064.308594 C 359.824219 1063.449219 355.847656 1062.191406 351.996094 1060.527344 C 348.144531 1058.863281 344.503906 1056.828125 341.066406 1054.425781 C 337.628906 1052.019531 334.46875 1049.296875 331.585938 1046.25 L 82.503906 794.550781 C 79.597656 791.65625 77.003906 788.503906 74.722656 785.09375 C 72.441406 781.683594 70.519531 778.082031 68.957031 774.289062 C 67.390625 770.496094 66.21875 766.585938 65.433594 762.558594 C 64.648438 758.535156 64.269531 754.46875 64.292969 750.367188 C 64.265625 746.226562 64.644531 742.125 65.429688 738.058594 C 66.214844 733.996094 67.386719 730.046875 68.949219 726.214844 C 70.511719 722.378906 72.433594 718.738281 74.714844 715.28125 C 76.996094 711.828125 79.59375 708.628906 82.503906 705.6875 Z M 1167.917969 454.480469 C 1165.050781 451.417969 1161.898438 448.679688 1158.464844 446.261719 C 1155.03125 443.847656 1151.390625 441.804688 1147.535156 440.140625 C 1143.683594 438.476562 1139.699219 437.21875 1135.589844 436.375 C 1131.476562 435.527344 1127.320312 435.109375 1123.125 435.121094 C 1121.074219 435.132812 1119.03125 435.25 1116.996094 435.464844 C 1114.957031 435.679688 1112.933594 435.992188 1110.925781 436.410156 C 1108.921875 436.824219 1106.941406 437.335938 1104.984375 437.945312 C 1103.027344 438.554688 1101.105469 439.257812 1099.21875 440.054688 C 1097.332031 440.855469 1095.488281 441.742188 1093.6875 442.722656 C 1091.890625 443.703125 1090.140625 444.769531 1088.445312 445.921875 C 1086.753906 447.070312 1085.117188 448.304688 1083.546875 449.617188 C 1081.972656 450.929688 1080.464844 452.316406 1079.03125 453.777344 C 1077.59375 455.238281 1076.230469 456.765625 1074.945312 458.359375 C 1073.65625 459.953125 1072.453125 461.609375 1071.328125 463.320312 C 1070.207031 465.035156 1069.167969 466.800781 1068.21875 468.613281 C 1067.269531 470.429688 1066.410156 472.289062 1065.640625 474.1875 C 1064.875 476.085938 1064.203125 478.019531 1063.625 479.988281 C 1063.046875 481.953125 1062.570312 483.941406 1062.1875 485.957031 C 1061.808594 487.96875 1061.527344 489.996094 1061.34375 492.035156 C 1061.164062 494.078125 1061.082031 496.121094 1061.101562 498.171875 C 1061.121094 502.363281 1061.542969 506.515625 1062.367188 510.625 C 1063.195312 514.734375 1064.410156 518.726562 1066.015625 522.597656 C 1067.617188 526.472656 1069.582031 530.152344 1071.902344 533.644531 C 1074.222656 537.136719 1076.855469 540.371094 1079.808594 543.347656 L 1285.074219 750.367188 L 1079.808594 957.386719 C 1076.855469 960.367188 1074.21875 963.601562 1071.898438 967.089844 C 1069.578125 970.582031 1067.617188 974.265625 1066.011719 978.136719 C 1064.410156 982.011719 1063.195312 986.003906 1062.367188 990.113281 C 1061.539062 994.222656 1061.117188 998.371094 1061.101562 1002.566406 C 1061.082031 1004.613281 1061.164062 1006.660156 1061.34375 1008.699219 C 1061.527344 1010.742188 1061.808594 1012.765625 1062.1875 1014.78125 C 1062.570312 1016.792969 1063.050781 1018.785156 1063.625 1020.75 C 1064.203125 1022.714844 1064.875 1024.648438 1065.640625 1026.546875 C 1066.410156 1028.449219 1067.269531 1030.304688 1068.21875 1032.121094 C 1069.167969 1033.9375 1070.207031 1035.699219 1071.328125 1037.414062 C 1072.453125 1039.125 1073.660156 1040.78125 1074.945312 1042.375 C 1076.230469 1043.96875 1077.59375 1045.496094 1079.03125 1046.957031 C 1080.46875 1048.417969 1081.972656 1049.804688 1083.546875 1051.117188 C 1085.117188 1052.429688 1086.753906 1053.664062 1088.449219 1054.816406 C 1090.140625 1055.964844 1091.890625 1057.03125 1093.6875 1058.011719 C 1095.488281 1058.992188 1097.332031 1059.878906 1099.21875 1060.679688 C 1101.105469 1061.476562 1103.027344 1062.179688 1104.984375 1062.789062 C 1106.941406 1063.398438 1108.921875 1063.910156 1110.929688 1064.324219 C 1112.933594 1064.738281 1114.957031 1065.054688 1116.996094 1065.269531 C 1119.03125 1065.484375 1121.074219 1065.597656 1123.125 1065.613281 C 1127.320312 1065.621094 1131.476562 1065.207031 1135.589844 1064.359375 C 1139.699219 1063.515625 1143.683594 1062.257812 1147.535156 1060.59375 C 1151.390625 1058.929688 1155.03125 1056.886719 1158.464844 1054.472656 C 1161.898438 1052.054688 1165.050781 1049.316406 1167.917969 1046.25 L 1417.492188 794.550781 C 1420.398438 791.65625 1422.992188 788.503906 1425.273438 785.09375 C 1427.554688 781.683594 1429.476562 778.082031 1431.039062 774.289062 C 1432.605469 770.496094 1433.777344 766.585938 1434.5625 762.558594 C 1435.347656 758.535156 1435.730469 754.46875 1435.703125 750.367188 C 1435.730469 746.226562 1435.351562 742.125 1434.566406 738.058594 C 1433.785156 733.996094 1432.609375 730.046875 1431.046875 726.214844 C 1429.484375 722.378906 1427.5625 718.738281 1425.28125 715.28125 C 1423 711.828125 1420.402344 708.628906 1417.492188 705.6875 Z M 1167.917969 454.480469 " fill-opacity="1" fill-rule="nonzero"/><g clip-path="url(#0c7177ae37)"><path fill="#000000" d="M 685.019531 1207.597656 L 934.59375 327.390625 C 936.542969 321.085938 937.53125 314.628906 937.546875 308.027344 C 937.566406 306.128906 937.5 304.230469 937.347656 302.339844 C 937.199219 300.445312 936.960938 298.5625 936.636719 296.691406 C 936.308594 294.816406 935.902344 292.964844 935.40625 291.128906 C 934.914062 289.296875 934.335938 287.488281 933.679688 285.703125 C 933.019531 283.921875 932.28125 282.175781 931.460938 280.460938 C 930.644531 278.746094 929.746094 277.074219 928.777344 275.441406 C 927.804688 273.808594 926.761719 272.222656 925.644531 270.6875 C 924.527344 269.148438 923.34375 267.664062 922.089844 266.238281 C 920.839844 264.808594 919.523438 263.4375 918.144531 262.128906 C 916.769531 260.820312 915.335938 259.578125 913.84375 258.402344 C 912.351562 257.222656 910.8125 256.117188 909.21875 255.082031 C 907.628906 254.042969 905.992188 253.082031 904.3125 252.195312 C 902.628906 251.308594 900.914062 250.5 899.160156 249.769531 C 897.40625 249.039062 895.621094 248.390625 893.808594 247.824219 C 891.996094 247.257812 890.160156 246.773438 888.304688 246.375 C 886.445312 245.972656 884.574219 245.660156 882.6875 245.433594 C 880.800781 245.203125 878.910156 245.0625 877.007812 245.007812 C 875.109375 244.953125 873.214844 244.984375 871.316406 245.101562 C 869.421875 245.21875 867.535156 245.425781 865.65625 245.714844 C 863.777344 246.007812 861.917969 246.382812 860.074219 246.84375 C 858.230469 247.304688 856.414062 247.847656 854.621094 248.472656 C 852.828125 249.101562 851.066406 249.808594 849.335938 250.597656 C 847.609375 251.386719 845.917969 252.25 844.269531 253.191406 C 842.621094 254.132812 841.015625 255.152344 839.460938 256.238281 C 837.902344 257.328125 836.398438 258.484375 834.949219 259.710938 C 833.496094 260.9375 832.105469 262.230469 830.773438 263.582031 C 829.4375 264.9375 828.171875 266.347656 826.964844 267.816406 C 825.761719 269.285156 824.628906 270.808594 823.5625 272.382812 C 822.496094 273.957031 821.507812 275.574219 820.589844 277.238281 C 819.671875 278.902344 818.832031 280.605469 818.074219 282.34375 C 817.3125 284.085938 816.628906 285.855469 816.03125 287.660156 C 815.433594 289.460938 814.914062 291.289062 814.484375 293.140625 L 565.402344 1173.339844 C 563.820312 1179.027344 563 1184.820312 562.941406 1190.71875 C 562.933594 1192.40625 562.992188 1194.085938 563.121094 1195.765625 C 563.25 1197.445312 563.445312 1199.117188 563.710938 1200.78125 C 563.972656 1202.445312 564.304688 1204.097656 564.703125 1205.734375 C 565.101562 1207.371094 565.566406 1208.988281 566.097656 1210.585938 C 566.628906 1212.1875 567.222656 1213.761719 567.882812 1215.3125 C 568.539062 1216.863281 569.261719 1218.382812 570.042969 1219.875 C 570.828125 1221.367188 571.667969 1222.824219 572.570312 1224.246094 C 573.472656 1225.671875 574.429688 1227.054688 575.445312 1228.398438 C 576.457031 1229.746094 577.523438 1231.046875 578.644531 1232.304688 C 579.765625 1233.5625 580.933594 1234.773438 582.152344 1235.9375 C 583.371094 1237.101562 584.636719 1238.210938 585.945312 1239.269531 C 587.253906 1240.332031 588.605469 1241.335938 589.996094 1242.285156 C 591.390625 1243.238281 592.816406 1244.128906 594.28125 1244.960938 C 595.746094 1245.796875 597.238281 1246.570312 598.765625 1247.28125 C 600.292969 1247.992188 601.847656 1248.640625 603.425781 1249.226562 C 605.007812 1249.8125 606.605469 1250.332031 608.230469 1250.785156 C 613.859375 1252.382812 619.605469 1253.210938 625.457031 1253.269531 C 627.140625 1253.269531 628.820312 1253.203125 630.496094 1253.066406 C 632.171875 1252.925781 633.839844 1252.722656 635.5 1252.449219 C 637.160156 1252.171875 638.804688 1251.832031 640.4375 1251.425781 C 642.066406 1251.015625 643.679688 1250.539062 645.273438 1250 C 646.867188 1249.460938 648.433594 1248.855469 649.976562 1248.1875 C 651.519531 1247.519531 653.035156 1246.785156 654.515625 1245.996094 C 656 1245.203125 657.449219 1244.351562 658.863281 1243.4375 C 660.277344 1242.527344 661.652344 1241.5625 662.984375 1240.539062 C 664.320312 1239.511719 665.613281 1238.4375 666.859375 1237.308594 C 668.105469 1236.179688 669.304688 1235 670.453125 1233.773438 C 671.605469 1232.546875 672.703125 1231.273438 673.75 1229.957031 C 674.792969 1228.640625 675.785156 1227.285156 676.722656 1225.886719 C 677.65625 1224.488281 678.53125 1223.054688 679.351562 1221.582031 C 680.167969 1220.113281 680.925781 1218.613281 681.621094 1217.082031 C 682.316406 1215.550781 682.945312 1213.992188 683.515625 1212.410156 C 684.082031 1210.824219 684.585938 1209.222656 685.019531 1207.597656 Z M 685.019531 1207.597656 " fill-opacity="1" fill-rule="evenodd"/></g></svg>