<svg xmlns="http://www.w3.org/2000/svg" xmlns:xlink="http://www.w3.org/1999/xlink" width="2000" zoomAndPan="magnify" viewBox="0 0 1500 1499.999933" height="2000" preserveAspectRatio="xMidYMid meet" version="1.0"><defs><clipPath id="16d5ba8877"><path d="M 750 0 C 335.785156 0 0 335.785156 0 750 C 0 1164.214844 335.785156 1500 750 1500 C 1164.214844 1500 1500 1164.214844 1500 750 C 1500 335.785156 1164.214844 0 750 0 Z M 750 0 " clip-rule="nonzero"/></clipPath><clipPath id="c42537b204"><path d="M 0 0 L 1500 0 L 1500 1500 L 0 1500 Z M 0 0 " clip-rule="nonzero"/></clipPath><clipPath id="082f7c5af9"><path d="M 750 0 C 335.785156 0 0 335.785156 0 750 C 0 1164.214844 335.785156 1500 750 1500 C 1164.214844 1500 1500 1164.214844 1500 750 C 1500 335.785156 1164.214844 0 750 0 Z M 750 0 " clip-rule="nonzero"/></clipPath><clipPath id="ac0749d0f5"><rect x="0" width="1500" y="0" height="1500"/></clipPath><clipPath id="3447567896"><path d="M 258.203125 332.585938 L 1241.453125 332.585938 L 1241.453125 992 L 258.203125 992 Z M 258.203125 332.585938 " clip-rule="nonzero"/></clipPath><clipPath id="eb5d9b281d"><path d="M 549 1061 L 949 1061 L 949 1167.335938 L 549 1167.335938 Z M 549 1061 " clip-rule="nonzero"/></clipPath></defs><g clip-path="url(#16d5ba8877)"><g transform="matrix(1, 0, 0, 1, 0, 0.000000000000112861)"><g clip-path="url(#ac0749d0f5)"><g clip-path="url(#c42537b204)"><g clip-path="url(#082f7c5af9)"><rect x="-330" width="2160" fill="#f3d6dc" height="2159.999904" y="-329.999985" fill-opacity="1"/></g></g></g></g></g><g clip-path="url(#3447567896)"><path fill="#000000" d="M 327.378906 332.585938 L 1172.277344 332.585938 C 1210.289062 332.585938 1241.390625 363.695312 1241.390625 401.140625 L 1241.390625 921.925781 C 1241.390625 959.945312 1210.289062 991.054688 1172.277344 991.054688 L 327.378906 991.054688 C 289.367188 991.054688 258.265625 959.945312 258.265625 921.925781 L 258.265625 401.140625 C 258.265625 363.695312 289.367188 332.585938 327.378906 332.585938 Z M 1172.277344 374.066406 L 327.378906 374.066406 C 311.828125 374.066406 299.734375 386.164062 299.734375 401.140625 L 299.734375 921.925781 C 299.734375 937.480469 311.828125 949.578125 327.378906 949.578125 L 1172.277344 949.578125 C 1187.253906 949.578125 1199.921875 937.480469 1199.921875 921.925781 L 1199.921875 401.140625 C 1199.921875 386.164062 1187.253906 374.066406 1172.277344 374.066406 Z M 1172.277344 374.066406 " fill-opacity="1" fill-rule="evenodd"/></g><path fill="#000000" d="M 663.726562 971.46875 L 835.929688 971.46875 L 835.929688 1081.5 L 663.726562 1081.5 Z M 663.726562 971.46875 " fill-opacity="1" fill-rule="nonzero"/><g clip-path="url(#eb5d9b281d)"><path fill="#000000" d="M 603.253906 1061.914062 L 896.402344 1061.914062 C 925.199219 1061.914062 948.816406 1085.535156 948.816406 1114.335938 L 948.816406 1155.816406 C 948.816406 1162.152344 944.207031 1167.335938 937.871094 1167.335938 L 561.785156 1167.335938 C 555.449219 1167.335938 550.265625 1162.152344 550.265625 1155.816406 C 550.265625 1124.132812 545.660156 1097.632812 565.816406 1077.46875 C 575.609375 1067.675781 588.855469 1061.914062 603.253906 1061.914062 Z M 603.253906 1061.914062 " fill-opacity="1" fill-rule="nonzero"/></g><path fill="#000000" d="M 823.835938 478.335938 C 813.46875 467.96875 829.59375 451.835938 839.960938 462.785156 L 897.554688 520.390625 C 901.585938 524.425781 901.585938 531.914062 897.554688 535.945312 L 839.960938 593.554688 C 829.59375 603.925781 813.46875 588.371094 823.835938 577.425781 L 873.367188 527.882812 Z M 823.835938 478.335938 " fill-opacity="1" fill-rule="nonzero"/><path fill="#000000" d="M 659.695312 462.785156 C 670.0625 451.835938 686.1875 467.96875 675.246094 478.335938 L 626.289062 527.882812 L 675.246094 577.425781 C 686.1875 588.371094 670.0625 603.925781 659.695312 593.554688 L 602.101562 535.945312 C 597.492188 531.914062 597.492188 524.425781 602.101562 520.390625 Z M 659.695312 462.785156 " fill-opacity="1" fill-rule="nonzero"/><path fill="#000000" d="M 763.9375 480.640625 C 771.425781 467.96875 791.007812 478.914062 783.519531 491.585938 L 735.140625 575.695312 C 727.65625 588.371094 708.074219 577.425781 715.558594 564.175781 Z M 763.9375 480.640625 " fill-opacity="1" fill-rule="nonzero"/><path fill="#000000" d="M 398.796875 664.414062 L 549.691406 664.414062 C 568.121094 664.414062 583.09375 679.390625 583.09375 697.828125 L 583.09375 785.390625 C 583.09375 803.828125 568.121094 818.804688 549.691406 818.804688 L 398.796875 818.804688 C 380.367188 818.804688 365.390625 803.828125 365.390625 785.390625 L 365.390625 697.828125 C 365.390625 679.390625 380.367188 664.414062 398.796875 664.414062 Z M 398.796875 664.414062 " fill-opacity="1" fill-rule="nonzero"/><path fill="#000000" d="M 398.796875 864.316406 C 383.820312 864.316406 383.820312 841.847656 398.796875 841.847656 L 549.691406 841.847656 C 564.664062 841.847656 564.664062 864.316406 549.691406 864.316406 Z M 398.796875 864.316406 " fill-opacity="1" fill-rule="nonzero"/><path fill="#000000" d="M 674.667969 664.414062 L 824.988281 664.414062 C 843.417969 664.414062 858.96875 679.390625 858.96875 697.828125 L 858.96875 785.390625 C 858.96875 803.828125 843.417969 818.804688 824.988281 818.804688 L 674.667969 818.804688 C 655.664062 818.804688 640.6875 803.828125 640.6875 785.390625 L 640.6875 697.828125 C 640.6875 679.390625 655.664062 664.414062 674.667969 664.414062 Z M 674.667969 664.414062 " fill-opacity="1" fill-rule="nonzero"/><path fill="#000000" d="M 674.09375 864.316406 C 659.117188 864.316406 659.117188 841.847656 674.09375 841.847656 L 825.5625 841.847656 C 839.960938 841.847656 839.960938 864.316406 825.5625 864.316406 Z M 674.09375 864.316406 " fill-opacity="1" fill-rule="nonzero"/><path fill="#000000" d="M 949.964844 664.414062 L 1100.285156 664.414062 C 1118.714844 664.414062 1134.265625 679.390625 1134.265625 697.828125 L 1134.265625 785.390625 C 1134.265625 803.828125 1118.714844 818.804688 1100.285156 818.804688 L 949.964844 818.804688 C 931.535156 818.804688 915.984375 803.828125 915.984375 785.390625 L 915.984375 697.828125 C 915.984375 679.390625 931.535156 664.414062 949.964844 664.414062 Z M 949.964844 664.414062 " fill-opacity="1" fill-rule="nonzero"/><path fill="#000000" d="M 949.390625 864.316406 C 934.417969 864.316406 934.417969 841.847656 949.390625 841.847656 L 1100.863281 841.847656 C 1115.835938 841.847656 1115.835938 864.316406 1100.863281 864.316406 Z M 949.390625 864.316406 " fill-opacity="1" fill-rule="nonzero"/></svg>