<svg xmlns="http://www.w3.org/2000/svg" xmlns:xlink="http://www.w3.org/1999/xlink" width="2000" zoomAndPan="magnify" viewBox="0 0 1500 1499.999933" height="2000" preserveAspectRatio="xMidYMid meet" version="1.0"><defs><clipPath id="8c975db061"><path d="M 371.457031 740 L 938 740 L 938 1287 L 371.457031 1287 Z M 371.457031 740 " clip-rule="nonzero"/></clipPath><clipPath id="7b0572867e"><path d="M 784.359375 480.144531 L 1292.859375 480.144531 L 1292.859375 914 L 784.359375 914 Z M 784.359375 480.144531 " clip-rule="nonzero"/></clipPath><clipPath id="0094c84b01"><path d="M 316 341 L 768 341 L 768 735.28125 L 316 735.28125 Z M 316 341 " clip-rule="nonzero"/></clipPath></defs><g clip-path="url(#8c975db061)"><path fill="#000000" d="M 593.960938 798.222656 C 591.261719 869.371094 582.832031 911.046875 541.453125 972.570312 C 534.410156 965.730469 524.898438 961.421875 514.488281 961.421875 L 410.535156 961.421875 C 389.308594 961.421875 371.613281 979.117188 371.613281 1000.34375 L 371.613281 1233.894531 C 371.613281 1255.121094 389.308594 1272.816406 410.535156 1272.816406 L 514.488281 1272.816406 C 525.410156 1272.816406 535.34375 1268.089844 542.464844 1260.652344 C 547.539062 1264.675781 552.269531 1268.371094 557.671875 1271.601562 C 569.152344 1278.46875 582.539062 1282.601562 599.636719 1284.375 C 633.835938 1287.914062 687.703125 1285.269531 812.910156 1285.792969 C 817.378906 1285.792969 821.832031 1284.179688 825.277344 1281.332031 C 850.050781 1261.125 862.21875 1240.339844 867.851562 1218.28125 C 870.015625 1217.105469 871.953125 1215.515625 873.527344 1213.621094 C 892.3125 1190.140625 899.890625 1163.039062 896.636719 1138.609375 C 897.679688 1137.765625 898.632812 1136.8125 899.476562 1135.769531 C 921.261719 1108.542969 928.167969 1076.328125 920.359375 1049.203125 C 933.132812 1032.621094 938.652344 1013.152344 936.578125 995.074219 C 934.03125 972.902344 919.84375 952.921875 898.464844 943.582031 C 896.039062 942.523438 893.402344 941.96875 890.757812 941.957031 L 731.007812 941.957031 C 739.554688 878.121094 733.03125 819.597656 710.53125 779.976562 C 697.78125 757.527344 678.328125 744.367188 658.835938 741.457031 C 623.824219 737.160156 597.316406 761.753906 593.960938 798.21875 Z M 676.675781 799.234375 C 694.402344 830.449219 702.691406 891.851562 690.054688 957.773438 C 687.921875 968.964844 697.71875 980.847656 709.113281 980.882812 L 885.082031 980.882812 C 892.351562 984.949219 896.894531 991.175781 897.855469 999.535156 C 898.753906 1007.371094 895.371094 1016.820312 887.515625 1026.296875 L 812.757812 1026.296875 C 802.472656 1026.296875 793.015625 1035.476562 793.015625 1045.757812 C 793.015625 1056.039062 802.472656 1065.367188 812.757812 1065.21875 L 883.867188 1065.21875 C 885.34375 1076.234375 882.625 1090.085938 873.730469 1104.144531 L 812.757812 1104.144531 C 802.472656 1104.144531 793.015625 1113.324219 793.015625 1123.605469 C 793.015625 1133.890625 802.472656 1143.214844 812.757812 1143.070312 L 857.917969 1143.070312 C 859.394531 1154.082031 856.675781 1167.933594 847.78125 1181.992188 L 812.757812 1181.992188 C 802.472656 1181.992188 793.015625 1191.171875 793.015625 1201.457031 C 793.015625 1211.738281 802.472656 1221.0625 812.757812 1220.917969 L 826.085938 1220.917969 C 822.101562 1229.503906 815.773438 1237.105469 804.597656 1246.867188 C 686.472656 1246.503906 630.171875 1248.414062 603.488281 1245.652344 C 589.742188 1244.230469 584.320312 1242.207031 577.539062 1238.152344 C 571.894531 1234.773438 564.105469 1228.316406 553.414062 1219.703125 L 553.414062 1022.445312 C 614.296875 941.050781 629.652344 884.125 632.882812 800.046875 C 638.96875 766.53125 668.015625 780.433594 676.675781 799.234375 Z M 410.535156 1000.34375 L 514.488281 1000.34375 C 514.046875 1077.667969 514.488281 1155.964844 514.488281 1233.894531 L 410.535156 1233.894531 Z M 410.535156 1000.34375 " fill-opacity="1" fill-rule="nonzero"/></g><path fill="#000000" d="M 1083.425781 659.382812 C 1083.425781 660.851562 1083.355469 662.3125 1083.210938 663.773438 C 1083.066406 665.234375 1082.851562 666.683594 1082.566406 668.125 C 1082.277344 669.5625 1081.921875 670.984375 1081.496094 672.390625 C 1081.070312 673.792969 1080.574219 675.175781 1080.015625 676.53125 C 1079.453125 677.886719 1078.824219 679.210938 1078.132812 680.503906 C 1077.441406 681.800781 1076.6875 683.058594 1075.871094 684.277344 C 1075.058594 685.496094 1074.183594 686.675781 1073.253906 687.808594 C 1072.320312 688.945312 1071.335938 690.03125 1070.300781 691.066406 C 1069.261719 692.105469 1068.175781 693.089844 1067.039062 694.019531 C 1065.90625 694.953125 1064.726562 695.824219 1063.507812 696.640625 C 1062.289062 697.457031 1061.03125 698.210938 1059.734375 698.902344 C 1058.441406 699.59375 1057.117188 700.21875 1055.757812 700.78125 C 1054.402344 701.34375 1053.023438 701.835938 1051.617188 702.261719 C 1050.214844 702.6875 1048.792969 703.046875 1047.351562 703.332031 C 1045.914062 703.617188 1044.460938 703.832031 1043.003906 703.976562 C 1041.542969 704.121094 1040.078125 704.191406 1038.609375 704.191406 C 1037.140625 704.191406 1035.675781 704.121094 1034.214844 703.976562 C 1032.753906 703.832031 1031.304688 703.617188 1029.867188 703.332031 C 1028.425781 703.046875 1027.003906 702.6875 1025.597656 702.261719 C 1024.195312 701.835938 1022.816406 701.34375 1021.457031 700.78125 C 1020.101562 700.21875 1018.777344 699.59375 1017.484375 698.902344 C 1016.1875 698.210938 1014.929688 697.457031 1013.710938 696.640625 C 1012.488281 695.824219 1011.3125 694.953125 1010.179688 694.019531 C 1009.042969 693.089844 1007.957031 692.105469 1006.917969 691.066406 C 1005.882812 690.03125 1004.898438 688.945312 1003.964844 687.808594 C 1003.035156 686.675781 1002.160156 685.496094 1001.34375 684.277344 C 1000.53125 683.058594 999.777344 681.800781 999.085938 680.503906 C 998.394531 679.210938 997.765625 677.886719 997.203125 676.53125 C 996.640625 675.175781 996.148438 673.792969 995.722656 672.390625 C 995.296875 670.984375 994.941406 669.5625 994.652344 668.125 C 994.367188 666.683594 994.152344 665.234375 994.007812 663.773438 C 993.863281 662.3125 993.792969 660.851562 993.792969 659.382812 C 993.792969 657.914062 993.863281 656.449219 994.007812 654.988281 C 994.152344 653.53125 994.367188 652.078125 994.652344 650.640625 C 994.941406 649.199219 995.296875 647.777344 995.722656 646.375 C 996.148438 644.96875 996.640625 643.589844 997.203125 642.234375 C 997.765625 640.878906 998.394531 639.554688 999.085938 638.257812 C 999.777344 636.964844 1000.53125 635.707031 1001.34375 634.488281 C 1002.160156 633.265625 1003.035156 632.089844 1003.964844 630.953125 C 1004.898438 629.820312 1005.882812 628.734375 1006.917969 627.695312 C 1007.957031 626.660156 1009.042969 625.675781 1010.179688 624.742188 C 1011.3125 623.8125 1012.488281 622.9375 1013.710938 622.125 C 1014.929688 621.308594 1016.1875 620.554688 1017.484375 619.863281 C 1018.777344 619.171875 1020.101562 618.542969 1021.457031 617.984375 C 1022.816406 617.421875 1024.195312 616.925781 1025.597656 616.5 C 1027.003906 616.074219 1028.425781 615.71875 1029.867188 615.433594 C 1031.304688 615.144531 1032.753906 614.929688 1034.214844 614.789062 C 1035.675781 614.644531 1037.140625 614.570312 1038.609375 614.570312 C 1040.078125 614.570312 1041.542969 614.644531 1043.003906 614.789062 C 1044.460938 614.929688 1045.914062 615.144531 1047.351562 615.433594 C 1048.792969 615.71875 1050.214844 616.074219 1051.617188 616.5 C 1053.023438 616.925781 1054.402344 617.421875 1055.757812 617.984375 C 1057.117188 618.542969 1058.441406 619.171875 1059.734375 619.863281 C 1061.03125 620.554688 1062.289062 621.308594 1063.507812 622.125 C 1064.726562 622.9375 1065.90625 623.8125 1067.039062 624.742188 C 1068.175781 625.675781 1069.261719 626.660156 1070.300781 627.695312 C 1071.335938 628.734375 1072.320312 629.820312 1073.253906 630.953125 C 1074.183594 632.089844 1075.058594 633.265625 1075.871094 634.488281 C 1076.6875 635.707031 1077.441406 636.964844 1078.132812 638.257812 C 1078.824219 639.554688 1079.453125 640.878906 1080.015625 642.234375 C 1080.574219 643.589844 1081.070312 644.96875 1081.496094 646.375 C 1081.921875 647.777344 1082.277344 649.199219 1082.566406 650.640625 C 1082.851562 652.078125 1083.066406 653.53125 1083.210938 654.988281 C 1083.355469 656.449219 1083.425781 657.914062 1083.425781 659.382812 Z M 1083.425781 659.382812 " fill-opacity="1" fill-rule="nonzero"/><path fill="#000000" d="M 1202.9375 659.382812 C 1202.9375 660.851562 1202.863281 662.3125 1202.71875 663.773438 C 1202.578125 665.234375 1202.363281 666.683594 1202.074219 668.125 C 1201.789062 669.5625 1201.433594 670.984375 1201.007812 672.390625 C 1200.582031 673.792969 1200.085938 675.175781 1199.523438 676.53125 C 1198.964844 677.886719 1198.335938 679.210938 1197.644531 680.503906 C 1196.953125 681.800781 1196.199219 683.058594 1195.382812 684.277344 C 1194.566406 685.496094 1193.695312 686.675781 1192.761719 687.808594 C 1191.832031 688.945312 1190.847656 690.03125 1189.808594 691.066406 C 1188.773438 692.105469 1187.6875 693.089844 1186.550781 694.019531 C 1185.417969 694.953125 1184.238281 695.824219 1183.019531 696.640625 C 1181.796875 697.457031 1180.539062 698.210938 1179.246094 698.902344 C 1177.953125 699.59375 1176.625 700.21875 1175.269531 700.78125 C 1173.914062 701.34375 1172.535156 701.835938 1171.128906 702.261719 C 1169.726562 702.6875 1168.300781 703.046875 1166.863281 703.332031 C 1165.421875 703.617188 1163.972656 703.832031 1162.511719 703.976562 C 1161.050781 704.121094 1159.585938 704.191406 1158.121094 704.191406 C 1156.652344 704.191406 1155.1875 704.121094 1153.726562 703.976562 C 1152.265625 703.832031 1150.816406 703.617188 1149.375 703.332031 C 1147.9375 703.046875 1146.515625 702.6875 1145.109375 702.261719 C 1143.707031 701.835938 1142.324219 701.34375 1140.96875 700.78125 C 1139.613281 700.21875 1138.289062 699.59375 1136.992188 698.902344 C 1135.699219 698.210938 1134.441406 697.457031 1133.222656 696.640625 C 1132 695.824219 1130.824219 694.953125 1129.6875 694.019531 C 1128.554688 693.089844 1127.46875 692.105469 1126.429688 691.066406 C 1125.390625 690.03125 1124.40625 688.945312 1123.476562 687.808594 C 1122.546875 686.675781 1121.671875 685.496094 1120.855469 684.277344 C 1120.039062 683.058594 1119.285156 681.800781 1118.59375 680.503906 C 1117.902344 679.210938 1117.277344 677.886719 1116.714844 676.53125 C 1116.152344 675.175781 1115.660156 673.792969 1115.234375 672.390625 C 1114.808594 670.984375 1114.449219 669.5625 1114.164062 668.125 C 1113.878906 666.683594 1113.664062 665.234375 1113.519531 663.773438 C 1113.375 662.3125 1113.304688 660.851562 1113.304688 659.382812 C 1113.304688 657.914062 1113.375 656.449219 1113.519531 654.988281 C 1113.664062 653.53125 1113.878906 652.078125 1114.164062 650.640625 C 1114.449219 649.199219 1114.808594 647.777344 1115.234375 646.375 C 1115.660156 644.96875 1116.152344 643.589844 1116.714844 642.234375 C 1117.277344 640.878906 1117.902344 639.554688 1118.59375 638.257812 C 1119.285156 636.964844 1120.039062 635.707031 1120.855469 634.488281 C 1121.671875 633.265625 1122.546875 632.089844 1123.476562 630.953125 C 1124.40625 629.820312 1125.390625 628.734375 1126.429688 627.695312 C 1127.46875 626.660156 1128.554688 625.675781 1129.6875 624.742188 C 1130.824219 623.8125 1132 622.9375 1133.222656 622.125 C 1134.441406 621.308594 1135.699219 620.554688 1136.992188 619.863281 C 1138.289062 619.171875 1139.613281 618.542969 1140.96875 617.984375 C 1142.324219 617.421875 1143.707031 616.925781 1145.109375 616.5 C 1146.515625 616.074219 1147.9375 615.71875 1149.375 615.433594 C 1150.816406 615.144531 1152.265625 614.929688 1153.726562 614.789062 C 1155.1875 614.644531 1156.652344 614.570312 1158.121094 614.570312 C 1159.585938 614.570312 1161.050781 614.644531 1162.511719 614.789062 C 1163.972656 614.929688 1165.421875 615.144531 1166.863281 615.433594 C 1168.300781 615.71875 1169.726562 616.074219 1171.128906 616.5 C 1172.535156 616.925781 1173.914062 617.421875 1175.269531 617.984375 C 1176.625 618.542969 1177.953125 619.171875 1179.246094 619.863281 C 1180.539062 620.554688 1181.796875 621.308594 1183.019531 622.125 C 1184.238281 622.9375 1185.417969 623.8125 1186.550781 624.742188 C 1187.6875 625.675781 1188.773438 626.660156 1189.808594 627.695312 C 1190.847656 628.734375 1191.832031 629.820312 1192.761719 630.953125 C 1193.695312 632.089844 1194.566406 633.265625 1195.382812 634.488281 C 1196.199219 635.707031 1196.953125 636.964844 1197.644531 638.257812 C 1198.335938 639.554688 1198.964844 640.878906 1199.523438 642.234375 C 1200.085938 643.589844 1200.582031 644.96875 1201.007812 646.375 C 1201.433594 647.777344 1201.789062 649.199219 1202.074219 650.640625 C 1202.363281 652.078125 1202.578125 653.53125 1202.71875 654.988281 C 1202.863281 656.449219 1202.9375 657.914062 1202.9375 659.382812 Z M 1202.9375 659.382812 " fill-opacity="1" fill-rule="nonzero"/><path fill="#000000" d="M 963.914062 659.382812 C 963.914062 660.851562 963.84375 662.3125 963.699219 663.773438 C 963.554688 665.234375 963.339844 666.683594 963.054688 668.125 C 962.765625 669.5625 962.410156 670.984375 961.984375 672.390625 C 961.558594 673.792969 961.066406 675.175781 960.503906 676.53125 C 959.941406 677.886719 959.316406 679.210938 958.625 680.503906 C 957.929688 681.800781 957.175781 683.058594 956.363281 684.277344 C 955.546875 685.496094 954.671875 686.675781 953.742188 687.808594 C 952.8125 688.945312 951.828125 690.03125 950.789062 691.066406 C 949.75 692.105469 948.664062 693.089844 947.53125 694.019531 C 946.394531 694.953125 945.21875 695.824219 943.996094 696.640625 C 942.777344 697.457031 941.519531 698.210938 940.226562 698.902344 C 938.929688 699.59375 937.605469 700.21875 936.25 700.78125 C 934.894531 701.34375 933.511719 701.835938 932.109375 702.261719 C 930.703125 702.6875 929.28125 703.046875 927.839844 703.332031 C 926.402344 703.617188 924.953125 703.832031 923.492188 703.976562 C 922.03125 704.121094 920.566406 704.191406 919.097656 704.191406 C 917.628906 704.191406 916.167969 704.121094 914.707031 703.976562 C 913.246094 703.832031 911.792969 703.617188 910.355469 703.332031 C 908.914062 703.046875 907.492188 702.6875 906.089844 702.261719 C 904.683594 701.835938 903.304688 701.34375 901.949219 700.78125 C 900.59375 700.21875 899.265625 699.59375 897.972656 698.902344 C 896.675781 698.210938 895.421875 697.457031 894.199219 696.640625 C 892.980469 695.824219 891.800781 694.953125 890.667969 694.019531 C 889.53125 693.089844 888.445312 692.105469 887.410156 691.066406 C 886.371094 690.03125 885.386719 688.945312 884.453125 687.808594 C 883.523438 686.675781 882.648438 685.496094 881.835938 684.277344 C 881.019531 683.058594 880.265625 681.800781 879.574219 680.503906 C 878.882812 679.210938 878.253906 677.886719 877.695312 676.53125 C 877.132812 675.175781 876.636719 673.792969 876.210938 672.390625 C 875.785156 670.984375 875.429688 669.5625 875.144531 668.125 C 874.855469 666.683594 874.640625 665.234375 874.496094 663.773438 C 874.355469 662.3125 874.28125 660.851562 874.28125 659.382812 C 874.28125 657.914062 874.355469 656.449219 874.496094 654.988281 C 874.640625 653.53125 874.855469 652.078125 875.144531 650.640625 C 875.429688 649.199219 875.785156 647.777344 876.210938 646.375 C 876.636719 644.96875 877.132812 643.589844 877.695312 642.234375 C 878.253906 640.878906 878.882812 639.554688 879.574219 638.257812 C 880.265625 636.964844 881.019531 635.707031 881.835938 634.488281 C 882.648438 633.265625 883.523438 632.089844 884.453125 630.953125 C 885.386719 629.820312 886.371094 628.734375 887.410156 627.695312 C 888.445312 626.660156 889.53125 625.675781 890.667969 624.742188 C 891.800781 623.8125 892.980469 622.9375 894.199219 622.125 C 895.421875 621.308594 896.675781 620.554688 897.972656 619.863281 C 899.265625 619.171875 900.59375 618.542969 901.949219 617.984375 C 903.304688 617.421875 904.683594 616.925781 906.089844 616.5 C 907.492188 616.074219 908.914062 615.71875 910.355469 615.433594 C 911.792969 615.144531 913.246094 614.929688 914.707031 614.789062 C 916.167969 614.644531 917.628906 614.570312 919.097656 614.570312 C 920.566406 614.570312 922.03125 614.644531 923.492188 614.789062 C 924.953125 614.929688 926.402344 615.144531 927.839844 615.433594 C 929.28125 615.71875 930.703125 616.074219 932.109375 616.5 C 933.511719 616.925781 934.894531 617.421875 936.25 617.984375 C 937.605469 618.542969 938.929688 619.171875 940.226562 619.863281 C 941.519531 620.554688 942.777344 621.308594 943.996094 622.125 C 945.21875 622.9375 946.394531 623.8125 947.53125 624.742188 C 948.664062 625.675781 949.75 626.660156 950.789062 627.695312 C 951.828125 628.734375 952.8125 629.820312 953.742188 630.953125 C 954.671875 632.089844 955.546875 633.265625 956.363281 634.488281 C 957.175781 635.707031 957.929688 636.964844 958.625 638.257812 C 959.316406 639.554688 959.941406 640.878906 960.503906 642.234375 C 961.066406 643.589844 961.558594 644.96875 961.984375 646.375 C 962.410156 647.777344 962.765625 649.199219 963.054688 650.640625 C 963.339844 652.078125 963.554688 653.53125 963.699219 654.988281 C 963.84375 656.449219 963.914062 657.914062 963.914062 659.382812 Z M 963.914062 659.382812 " fill-opacity="1" fill-rule="nonzero"/><g clip-path="url(#7b0572867e)"><path fill="#000000" d="M 1209.90625 480.140625 L 867.308594 480.140625 C 821.730469 480.140625 784.648438 517.214844 784.648438 562.789062 L 784.648438 755.972656 C 784.648438 801.546875 821.730469 838.625 867.308594 838.625 L 919.097656 838.625 L 919.097656 898.371094 C 919.097656 910.359375 932.5 917.351562 942.324219 910.796875 L 1050.601562 838.625 L 1209.90625 838.625 C 1255.488281 838.625 1292.570312 801.546875 1292.570312 755.972656 L 1292.570312 562.789062 C 1292.570312 517.21875 1255.488281 480.140625 1209.90625 480.140625 Z M 1262.691406 755.972656 C 1262.691406 785.074219 1239.011719 808.75 1209.90625 808.75 L 1046.078125 808.75 C 1043.128906 808.75 1040.246094 809.625 1037.792969 811.257812 L 948.976562 870.460938 L 948.976562 823.6875 C 948.976562 815.4375 942.289062 808.75 934.039062 808.75 L 867.308594 808.75 C 838.203125 808.75 814.527344 785.074219 814.527344 755.972656 L 814.527344 562.789062 C 814.527344 533.6875 838.203125 510.015625 867.308594 510.015625 L 1209.90625 510.015625 C 1239.011719 510.015625 1262.691406 533.6875 1262.691406 562.789062 Z M 1262.691406 755.972656 " fill-opacity="1" fill-rule="nonzero"/></g><g clip-path="url(#0094c84b01)"><path fill="#000000" d="M 542.039062 735.191406 C 539.015625 735.171875 537.050781 733.464844 536.601562 733.054688 L 361.832031 558.308594 C 320.238281 520.671875 305.929688 463.304688 325.316406 415.679688 C 347.910156 360.175781 404.945312 345.691406 408.785156 344.792969 C 457.792969 333.359375 510.167969 354.660156 542.09375 398.125 C 574.019531 354.660156 626.402344 333.359375 675.398438 344.792969 C 677.863281 345.367188 736.015625 359.515625 758.871094 415.679688 C 778.40625 463.679688 763.726562 520.976562 722.355469 558.308594 L 547.585938 733.054688 C 547.148438 733.453125 545.132812 735.210938 542.039062 735.191406 Z M 542.039062 735.191406 " fill-opacity="1" fill-rule="nonzero"/></g></svg>