<svg xmlns="http://www.w3.org/2000/svg" xmlns:xlink="http://www.w3.org/1999/xlink" width="2000" zoomAndPan="magnify" viewBox="0 0 1500 1499.999933" height="2000" preserveAspectRatio="xMidYMid meet" version="1.0"><defs><clipPath id="13604b30a7"><path d="M 185 281 L 1320.871094 281 L 1320.871094 1219 L 185 1219 Z M 185 281 " clip-rule="nonzero"/></clipPath></defs><g clip-path="url(#13604b30a7)"><path fill="#000000" d="M 1304.253906 735.347656 L 1259.792969 735.347656 C 1231.871094 567.089844 1109.605469 429.980469 943.265625 369.679688 L 1198.140625 369.679688 C 1205.632812 396.730469 1230.261719 415.546875 1258.367188 415.546875 C 1292.847656 415.648438 1320.871094 387.636719 1320.976562 353.066406 C 1320.976562 318.601562 1293.054688 290.589844 1258.46875 290.484375 C 1230.261719 290.484375 1205.554688 309.300781 1198.140625 336.429688 L 824.996094 336.429688 L 824.996094 297.976562 C 824.996094 288.777344 817.503906 281.363281 808.378906 281.363281 L 698.167969 281.363281 C 688.964844 281.363281 681.550781 288.777344 681.550781 297.976562 L 681.550781 339.28125 L 309.15625 339.28125 C 301.558594 305.566406 268.011719 284.5 234.386719 292.09375 C 200.65625 299.683594 179.476562 333.113281 187.175781 366.828125 C 194.773438 400.4375 228.214844 421.609375 261.945312 414.015625 C 283.410156 409.171875 300.703125 393.414062 307.546875 372.527344 L 555.578125 372.527344 C 393.128906 434.230469 274.183594 569.65625 246.726562 735.347656 L 202.289062 735.347656 C 193.085938 735.347656 185.671875 742.757812 185.671875 751.957031 L 185.671875 862.117188 C 185.671875 871.316406 193.085938 878.730469 202.289062 878.730469 L 312.5 878.730469 C 321.625 878.730469 329.117188 871.316406 329.117188 862.117188 L 329.117188 751.957031 C 329.117188 742.757812 321.625 735.347656 312.5 735.347656 L 280.402344 735.347656 C 314.082031 547.628906 475.207031 402.71875 681.550781 374.601562 L 681.550781 408.109375 C 681.550781 417.230469 688.964844 424.71875 698.167969 424.71875 L 722.097656 424.71875 L 470.359375 801.117188 C 467.042969 806.066406 466.652344 812.414062 469.21875 817.726562 L 584.355469 1050.925781 C 540.644531 1089.199219 515.679688 1144.550781 515.859375 1202.574219 C 516.328125 1211.410156 523.636719 1218.433594 532.476562 1218.433594 L 973.9375 1218.433594 C 982.855469 1218.433594 990.191406 1211.488281 990.554688 1202.574219 C 990.839844 1144.550781 965.847656 1089.199219 922.164062 1050.925781 L 1037.300781 817.625 C 1039.96875 812.3125 1039.476562 806.039062 1036.160156 801.089844 L 784.316406 424.746094 L 808.351562 424.746094 C 817.476562 424.746094 824.96875 417.257812 824.96875 408.132812 L 824.96875 374.628906 C 1031.207031 402.746094 1192.410156 547.730469 1226.140625 735.347656 L 1194.019531 735.347656 C 1184.816406 735.347656 1177.402344 742.757812 1177.402344 751.957031 L 1177.402344 862.117188 C 1177.402344 871.316406 1184.816406 878.730469 1194.019531 878.730469 L 1304.226562 878.730469 C 1313.355469 878.730469 1320.847656 871.316406 1320.847656 862.117188 L 1320.847656 751.957031 C 1320.847656 742.757812 1313.355469 735.347656 1304.226562 735.347656 Z M 1237.546875 332.363281 C 1242.863281 327.050781 1250.171875 323.734375 1258.339844 323.734375 C 1274.492188 323.734375 1287.609375 336.84375 1287.609375 353.066406 C 1287.609375 369.289062 1274.492188 382.324219 1258.339844 382.324219 C 1242.1875 382.324219 1228.992188 369.210938 1228.992188 353.066406 C 1228.992188 345.007812 1232.3125 337.675781 1237.546875 332.363281 Z M 268.867188 373.746094 C 263.550781 378.980469 256.242188 382.296875 248.152344 382.296875 C 232 382.296875 218.882812 369.1875 218.882812 353.042969 C 218.882812 336.898438 232 323.707031 248.152344 323.707031 C 264.304688 323.707031 277.5 336.820312 277.5 353.042969 C 277.398438 361.101562 274.183594 368.433594 268.867188 373.746094 Z M 295.855469 768.570312 L 295.855469 845.480469 L 218.910156 845.480469 L 218.910156 768.570312 Z M 956.644531 1185.238281 L 549.875 1185.238281 C 554.253906 1140.898438 576.1875 1100.160156 610.773438 1072.046875 L 895.773438 1072.046875 C 930.433594 1099.953125 952.496094 1140.792969 956.671875 1185.238281 Z M 1003.207031 811.585938 L 891.105469 1038.824219 L 615.414062 1038.824219 L 503.3125 811.585938 L 736.617188 462.8125 L 736.617188 720.992188 C 689.015625 730.113281 657.957031 776.160156 667.082031 823.636719 C 676.285156 871.214844 722.277344 902.363281 769.878906 893.136719 C 817.476562 883.9375 848.535156 837.964844 839.332031 790.386719 C 832.589844 755.25 805.03125 727.730469 769.878906 720.964844 L 769.878906 462.785156 L 1003.179688 811.558594 Z M 753.257812 752.632812 C 783.386719 752.632812 807.703125 776.9375 807.703125 807.050781 C 807.703125 837.164062 783.386719 861.46875 753.257812 861.46875 C 723.132812 861.46875 698.738281 837.164062 698.738281 807.050781 C 698.84375 777.042969 723.160156 752.632812 753.257812 752.632812 Z M 791.734375 391.523438 L 714.785156 391.523438 L 714.785156 314.585938 L 791.734375 314.585938 Z M 1287.609375 845.480469 L 1210.664062 845.480469 L 1210.664062 768.570312 L 1287.609375 768.570312 Z M 1287.609375 845.480469 " fill-opacity="1" fill-rule="nonzero"/></g></svg>