<svg xmlns="http://www.w3.org/2000/svg" xmlns:xlink="http://www.w3.org/1999/xlink" width="2000" zoomAndPan="magnify" viewBox="0 0 1500 1499.999933" height="2000" preserveAspectRatio="xMidYMid meet" version="1.0"><defs><clipPath id="107b332db3"><path d="M 750 0 C 335.785156 0 0 335.785156 0 750 C 0 1164.214844 335.785156 1500 750 1500 C 1164.214844 1500 1500 1164.214844 1500 750 C 1500 335.785156 1164.214844 0 750 0 Z M 750 0 " clip-rule="nonzero"/></clipPath><clipPath id="b47d0fe64d"><path d="M 0 0 L 1500 0 L 1500 1500 L 0 1500 Z M 0 0 " clip-rule="nonzero"/></clipPath><clipPath id="8666343f1f"><path d="M 750 0 C 335.785156 0 0 335.785156 0 750 C 0 1164.214844 335.785156 1500 750 1500 C 1164.214844 1500 1500 1164.214844 1500 750 C 1500 335.785156 1164.214844 0 750 0 Z M 750 0 " clip-rule="nonzero"/></clipPath><clipPath id="8f3e16833b"><rect x="0" width="1500" y="0" height="1500"/></clipPath><clipPath id="905da58f60"><path d="M 653 366.964844 L 1037 366.964844 L 1037 937.714844 L 653 937.714844 Z M 653 366.964844 " clip-rule="nonzero"/></clipPath><clipPath id="57889820b4"><path d="M 1060 663 L 1261.589844 663 L 1261.589844 885 L 1060 885 Z M 1060 663 " clip-rule="nonzero"/></clipPath><clipPath id="4d2543be71"><path d="M 238.589844 687 L 325 687 L 325 885 L 238.589844 885 Z M 238.589844 687 " clip-rule="nonzero"/></clipPath></defs><g clip-path="url(#107b332db3)"><g transform="matrix(1, 0, 0, 1, 0, 0.000000000000112861)"><g clip-path="url(#8f3e16833b)"><g clip-path="url(#b47d0fe64d)"><g clip-path="url(#8666343f1f)"><rect x="-330" width="2160" fill="#f3d6dc" height="2159.999904" y="-329.999985" fill-opacity="1"/></g></g></g></g></g><g clip-path="url(#905da58f60)"><path fill="#030303" d="M 1032.160156 368.515625 C 1038.140625 372.171875 1038.140625 380.484375 1031.933594 393.453125 C 1004.980469 450.207031 939.757812 587.988281 836.265625 806.792969 C 834.042969 811.554688 833.273438 816.664062 833.933594 821.75 C 842.363281 883.0625 817.847656 920.96875 760.390625 935.476562 C 739.863281 940.691406 718.796875 936.816406 697.160156 923.851562 C 675.636719 910.882812 662.335938 894.148438 657.222656 873.515625 C 643.25 815.992188 665.324219 776.527344 723.453125 755.355469 C 728.21875 753.578125 732.433594 750.480469 735.542969 746.261719 C 880.523438 552.410156 971.703125 430.144531 1009.304688 379.820312 C 1017.851562 368.292969 1025.496094 364.527344 1032.160156 368.515625 Z M 1032.160156 368.515625 " fill-opacity="1" fill-rule="nonzero"/></g><path fill="#030303" d="M 747.964844 373.0625 C 809.527344 373.941406 870.539062 386.140625 931.101562 409.75 C 934.320312 411.082031 935.535156 414.957031 933.429688 417.726562 L 859.226562 516.9375 C 856.78125 520.152344 852.566406 521.253906 848.90625 519.59375 C 815.410156 504.964844 781.578125 495.65625 747.523438 491.773438 C 743.308594 491.332031 740.199219 487.894531 740.199219 483.683594 L 740.199219 380.707031 C 740.199219 376.496094 743.753906 372.945312 747.964844 373.0625 Z M 747.964844 373.0625 " fill-opacity="1" fill-rule="nonzero"/><path fill="#030303" d="M 676.753906 377.828125 C 678.636719 377.601562 680.296875 379.046875 680.296875 380.929688 L 680.296875 484.902344 C 680.296875 486.785156 678.746094 488.445312 676.863281 488.558594 C 623.285156 492.441406 573.03125 505.1875 526.332031 526.796875 C 522.671875 528.464844 518.238281 527.132812 516.246094 523.582031 L 475.753906 453.53125 C 474.3125 450.980469 475.082031 447.765625 477.640625 446.328125 C 539.199219 410.410156 605.648438 387.582031 676.753906 377.828125 Z M 676.753906 377.828125 " fill-opacity="1" fill-rule="nonzero"/><path fill="#030303" d="M 1169.820312 605.167969 C 1171.25 607.386719 1170.589844 610.375 1168.261719 611.707031 L 1043.914062 683.414062 C 1041.03125 685.078125 1037.371094 684.410156 1035.257812 681.875 L 978.019531 611.597656 C 975.367188 608.273438 974.8125 603.726562 976.699219 599.851562 L 1036.375 473.929688 C 1037.480469 471.488281 1040.589844 470.714844 1042.808594 472.375 C 1094.273438 511.058594 1136.652344 555.289062 1169.820312 605.167969 Z M 1169.820312 605.167969 " fill-opacity="1" fill-rule="nonzero"/><path fill="#030303" d="M 463.664062 561.71875 C 423.84375 588.648438 389.785156 622.023438 361.277344 661.914062 C 358.839844 665.359375 354.0625 666.355469 350.519531 664.015625 L 302.152344 633.105469 C 299.269531 631.332031 298.382812 627.5625 300.15625 624.566406 C 331.105469 571.914062 370.484375 526.136719 418.070312 487.34375 C 420.84375 485.121094 424.949219 485.789062 426.726562 488.890625 L 465.105469 555.394531 C 466.328125 557.613281 465.765625 560.386719 463.664062 561.71875 Z M 463.664062 561.71875 " fill-opacity="1" fill-rule="nonzero"/><g clip-path="url(#57889820b4)"><path fill="#030303" d="M 1261.441406 876.632812 C 1261.769531 881.050781 1258.226562 884.816406 1253.785156 884.816406 L 1085.738281 884.816406 C 1081.511719 884.816406 1078.308594 881.394531 1078.414062 877.390625 C 1080.300781 832.835938 1074.308594 790.597656 1060.550781 750.699219 C 1059.328125 747.039062 1060.886719 743.058594 1064.214844 741.066406 L 1198.441406 663.691406 C 1200.652344 662.371094 1203.53125 663.257812 1204.757812 665.574219 C 1237.804688 732.1875 1256.675781 802.460938 1261.441406 876.632812 Z M 1261.441406 876.632812 " fill-opacity="1" fill-rule="nonzero"/></g><g clip-path="url(#4d2543be71)"><path fill="#030303" d="M 281.070312 884.597656 L 242.472656 884.492188 C 240.699219 884.492188 239.257812 883.0625 239.148438 881.15625 C 236.59375 815.320312 246.582031 752.257812 269.101562 691.835938 C 270.433594 688.199219 274.984375 686.640625 278.417969 688.847656 L 321.5625 716.667969 C 324.671875 718.679688 325.894531 722.664062 324.226562 725.976562 C 300.9375 774.535156 287.734375 826.191406 284.515625 881.285156 C 284.40625 883.171875 282.847656 884.597656 281.070312 884.597656 Z M 281.070312 884.597656 " fill-opacity="1" fill-rule="nonzero"/></g></svg>